<?xml version="1.0" encoding="UTF-8" standalone="no"?>
<!-- Created with Inkscape (http://www.inkscape.org/) -->

<svg
   width="720"
   height="1080"
   viewBox="0 0 720 1080"
   version="1.1"
   id="svg1"
   inkscape:version="1.3 (0e150ed6c4, 2023-07-21)"
   sodipodi:docname="batman.svg"
   xml:space="preserve"
   xmlns:inkscape="http://www.inkscape.org/namespaces/inkscape"
   xmlns:sodipodi="http://sodipodi.sourceforge.net/DTD/sodipodi-0.dtd"
   xmlns="http://www.w3.org/2000/svg"
   xmlns:svg="http://www.w3.org/2000/svg"><sodipodi:namedview
     id="namedview1"
     pagecolor="#ffffff"
     bordercolor="#000000"
     borderopacity="0.25"
     inkscape:showpageshadow="2"
     inkscape:pageopacity="0.0"
     inkscape:pagecheckerboard="0"
     inkscape:deskcolor="#d1d1d1"
     inkscape:document-units="px"
     inkscape:zoom="0.51780096"
     inkscape:cx="-23.174928"
     inkscape:cy="573.57947"
     inkscape:window-width="1920"
     inkscape:window-height="1018"
     inkscape:window-x="-6"
     inkscape:window-y="-6"
     inkscape:window-maximized="1"
     inkscape:current-layer="layer1" /><defs
     id="defs1" /><g
     inkscape:label="Layer 1"
     inkscape:groupmode="layer"
     id="layer1"><path
       style="fill:none;stroke:#000000;stroke-width:4.7844;stroke-linecap:square;stroke-dasharray:none;paint-order:stroke fill markers"
       d="m 310.43048,585.84647 c -25.75712,-20.80173 -44.0877,1.08859 -47.89774,25.03745 -22.86028,-32.65755 -69.66945,-42.4548 -88.17538,-23.40457 -18.50594,19.05023 5.44292,39.18905 16.32877,66.40367 C 173.81306,655.5159 92.169214,597.27662 76.384732,559.72043 60.600249,522.16426 62.630415,506.18249 78.561908,476.4437 94.890685,445.96332 167.82584,397.52129 236.95099,370.30666 c -14.1516,9.25298 -29.93608,52.79637 0,83.82104 29.93608,31.02467 71.30231,9.25297 78.3781,3.26575 7.07581,-5.9872 15.24019,-99.60551 15.24019,-99.60551 l 18.50596,34.83471 17.14006,-0.066 17.14006,-0.066 18.50595,-34.83472 c 0,0 8.16438,93.61831 15.24019,99.60551 7.07579,5.98722 48.44202,27.75892 78.3781,-3.26575 29.93608,-31.02467 14.1516,-74.56806 0,-83.82104 69.12515,27.21463 142.06033,75.65666 158.3891,106.13704 15.9315,29.73879 17.96166,45.72056 2.17718,83.27673 -15.78448,37.55619 -97.42835,95.79547 -114.30142,94.16259 10.88585,-27.21461 34.83471,-47.35343 16.32878,-66.40366 -18.50594,-19.05024 -65.31511,-9.25299 -88.17539,23.40456 -3.81004,-23.94886 -22.14062,-45.83918 -47.89774,-25.03745 -35.94962,29.03333 -49.53061,62.59364 -55.78482,73.00117 -6.2542,-10.27557 -19.83519,-43.83588 -55.78481,-72.86921 z"
       id="path4-6"
       sodipodi:nodetypes="scscsscsscccccsscsscscscs" /></g></svg>
