<?xml version="1.0" encoding="UTF-8" standalone="no"?>
<!-- Created with Inkscape (http://www.inkscape.org/) -->

<svg
   width="720mm"
   height="1080mm"
   viewBox="0 0 720 1080"
   version="1.1"
   id="svg1"
   xml:space="preserve"
   inkscape:version="1.3 (0e150ed6c4, 2023-07-21)"
   sodipodi:docname="chivas.svg"
   xmlns:inkscape="http://www.inkscape.org/namespaces/inkscape"
   xmlns:sodipodi="http://sodipodi.sourceforge.net/DTD/sodipodi-0.dtd"
   xmlns="http://www.w3.org/2000/svg"
   xmlns:svg="http://www.w3.org/2000/svg"><sodipodi:namedview
     id="namedview1"
     pagecolor="#ffffff"
     bordercolor="#000000"
     borderopacity="0.25"
     inkscape:showpageshadow="2"
     inkscape:pageopacity="0.0"
     inkscape:pagecheckerboard="0"
     inkscape:deskcolor="#d1d1d1"
     inkscape:document-units="mm"
     inkscape:zoom="0.045767572"
     inkscape:cx="8958.3079"
     inkscape:cy="4020.3138"
     inkscape:window-width="1920"
     inkscape:window-height="1018"
     inkscape:window-x="-6"
     inkscape:window-y="-6"
     inkscape:window-maximized="1"
     inkscape:current-layer="layer1" /><defs
     id="defs1" /><g
     inkscape:label="Layer 1"
     inkscape:groupmode="layer"
     id="layer1"><path
       style="fill:none;stroke:#000000;stroke-width:0.793999;stroke-linecap:square;paint-order:stroke fill markers"
       d="m 320.89227,882.96474 c 0,0 -106.28278,-8.1756 -122.63398,-63.36088 -16.3512,-55.18531 -34.7463,-110.3706 -2.0439,-138.9852 -14.3073,-47.00971 -18.3951,-169.64369 12.2634,-185.99489 -67.4487,4.08779 -83.7999,-55.18531 -83.7999,-55.18531 0,0 51.0975,-32.70239 98.1072,-16.35119 36.79019,-44.96578 34.74629,-83.7999 89.93158,-77.6682 -59.27309,-63.36088 -130.80958,-122.63398 -200.30218,-106.28279 77.6682,-16.35119 118.54619,-24.52679 181.90708,6.1317 63.36091,30.65851 96.0633,98.10721 96.0633,98.10721 0,0 42.9219,12.26338 71.53651,49.05359 28.61458,36.7902 126.72179,14.30729 153.29249,42.9219 16.3512,47.00968 8.1756,75.62429 -30.65852,81.75598 -38.83408,6.13169 -136.94129,16.3512 -108.32668,47.00971 28.61461,30.65849 96.0633,24.5268 116.50228,18.39508 26.5707,36.7902 24.5268,128.76569 -8.1756,157.3803 -10.2195,-42.9219 -6.45316,-26.65817 -44.39113,26.45495 -3.25183,-22.76277 -4.33575,-25.29197 -4.33575,-25.29197 0,0 -20.95622,32.51824 -46.24819,47.69344 3.61315,-35.04744 24.20803,-34.32481 -62.5073,-2.16789 33.2409,-26.37591 82.74089,-93.21897 78.76643,-121.04015 -3.97444,-27.82115 -161.44227,-5.36048 -196.18857,-98.35793 32.70239,97.08526 33.72435,48.03167 36.79018,71.53651 3.06586,23.50484 17.37315,69.4926 -12.26338,113.43645"
       id="path1" /><path
       style="fill:none;stroke:#000000;stroke-width:0.793999;stroke-linecap:square;paint-order:stroke fill markers"
       d="m 612.0657,509.81387 c 0,0 25.75908,36.04746 -72.8796,41.8285 20.73715,-0.8073 40.84033,-3.72786 59.54042,-11.32536 l -6.17178,41.39831"
       id="path2"
       sodipodi:nodetypes="cccc" /><path
       style="fill:none;stroke:#000000;stroke-width:0.793999;stroke-linecap:square;paint-order:stroke fill markers"
       d="m 441.52555,429.24087 c 0,0 -37.57666,9.39416 -65.03652,-6.50365"
       id="path3" /><path
       style="fill:none;stroke:#000000;stroke-width:0.793999;stroke-linecap:square;paint-order:stroke fill markers"
       d="m 618.02422,447.35858 c 0,0 -86.61024,22.99388 -56.46274,22.99388 30.14752,0 31.93594,5.87621 35.76825,10.98595 3.83233,5.10976 3.83233,9.45306 12.51889,5.62073 8.68659,-3.83231 13.02986,-8.1756 13.02986,-8.1756"
       id="path4" /></g></svg>
